<svg width="260" height="48" viewBox="0 0 260 48" fill="none" xmlns="http://www.w3.org/2000/svg">
<path d="M15.7478 47.4659C13.6236 47.4659 11.7649 47.0185 10.1717 46.1237C8.6194 45.2289 7.39389 43.9884 6.49519 42.4021C5.63733 40.8158 5.20841 38.9245 5.20841 36.7281V22.1467H0V20.9875L11.0908 8.66345H12.7453V17.5099L23.3459 15.9237H24.265V22.1467L23.5297 22.6958L12.7453 21.1095V34.7758C12.7453 37.2976 13.1946 39.1889 14.0933 40.4498C14.992 41.67 16.3809 42.2801 18.2601 42.2801C20.7928 42.2801 22.9374 41.2632 24.694 39.2296L26.471 40.3277C25.6131 42.5241 24.2242 44.2731 22.3042 45.5746C20.3843 46.8355 18.1988 47.4659 15.7478 47.4659Z" fill="black"/>
<path d="M45.8048 46.6728V45.7577L49.8489 42.097V28.7968C49.8489 26.2344 49.3792 24.4041 48.4396 23.3059C47.5001 22.167 45.9273 21.5976 43.7214 21.5976C42.0465 21.5976 40.5351 21.9027 39.187 22.5128C38.1249 23.0008 37.0832 23.733 36.062 24.7091V42.036L40.1062 45.7577V46.6728H24.3584V45.7577L28.5864 42.036V8.60244L24.1746 4.94183V3.84364L34.4688 0H36.062V21.6586C39.7385 17.9573 43.5172 16.1067 47.3979 16.1067C50.666 16.1067 53.1374 17.0422 54.8123 18.9132C56.4871 20.7435 57.3245 23.4279 57.3245 26.9665V42.097L61.4913 45.7577V46.6728H45.8048Z" fill="black"/>
<path d="M76.0987 47.4659C73.1575 47.4659 70.5431 46.8558 68.2555 45.6356C65.9679 44.3748 64.1705 42.6461 62.8633 40.4498C61.5969 38.2534 60.9637 35.752 60.9637 32.9455C60.9637 29.6103 61.6582 26.7021 63.0471 24.2211C64.436 21.6993 66.3355 19.7266 68.7457 18.3031C71.1559 16.8388 73.9337 16.1067 77.0791 16.1067C79.6119 16.1067 81.8178 16.7371 83.6969 17.998C85.576 19.2182 87.0262 20.9672 88.0474 23.2449C89.1095 25.5226 89.6406 28.2071 89.6406 31.2982H68.807C68.8478 34.7555 69.7261 37.4806 71.4418 39.4736C73.1984 41.5073 75.629 42.5241 78.7336 42.5241C82.2467 42.5241 85.1062 41.4463 87.3121 39.2906L88.9053 40.7548C87.6798 42.8698 85.9232 44.5171 83.6356 45.6966C81.3888 46.8762 78.8766 47.4659 76.0987 47.4659ZM68.9295 28.6748L81.5522 27.2106C81.5522 24.8515 81.0212 23.0415 79.9591 21.7806C78.9378 20.4791 77.5489 19.8283 75.7924 19.8283C74.4035 19.8283 73.1779 20.2961 72.1158 21.2316C71.0537 22.167 70.2367 23.4686 69.6648 25.1362C69.2972 26.2344 69.0521 27.4139 68.9295 28.6748Z" fill="black"/>
<path d="M136.671 46.9168L111.119 14.4594L112.896 41.731L117.492 45.5136V46.6728H102.663V45.5136L107.259 41.731L108.239 10.8598L103.705 5.73496V4.57576H112.957L137.222 35.3249L134.649 9.51759L129.992 5.73496V4.57576H144.882V5.73496L140.286 9.51759V46.9168H136.671Z" fill="black"/>
<path d="M159.017 47.4659C156.076 47.4659 153.461 46.8558 151.173 45.6356C148.886 44.3748 147.088 42.6461 145.781 40.4498C144.515 38.2534 143.882 35.752 143.882 32.9455C143.882 29.6103 144.576 26.7021 145.965 24.2211C147.354 21.6993 149.254 19.7266 151.664 18.3031C154.074 16.8388 156.852 16.1067 159.997 16.1067C162.53 16.1067 164.736 16.7371 166.615 17.998C168.494 19.2182 169.944 20.9672 170.965 23.2449C172.028 25.5226 172.559 28.2071 172.559 31.2982H151.725C151.766 34.7555 152.644 37.4806 154.36 39.4736C156.116 41.5073 158.547 42.5241 161.652 42.5241C165.165 42.5241 168.024 41.4463 170.23 39.2906L171.823 40.7548C170.598 42.8698 168.841 44.5171 166.554 45.6966C164.307 46.8762 161.795 47.4659 159.017 47.4659ZM151.848 28.6748L164.47 27.2106C164.47 24.8515 163.939 23.0415 162.877 21.7806C161.856 20.4791 160.467 19.8283 158.71 19.8283C157.321 19.8283 156.096 20.2961 155.034 21.2316C153.972 22.167 153.155 23.4686 152.583 25.1362C152.215 26.2344 151.97 27.4139 151.848 28.6748Z" fill="black"/>
<path d="M186.371 47.1609L173.932 22.2077L170.01 17.876V16.9608H185.391V17.876L181.959 22.0857L190.047 38.1924L195.807 16.9608H200.464L209.717 38.1924L214.68 21.9027L211.31 17.876V16.9608H224.484V17.876L220.563 22.2077L208.062 47.1609H205.795L197.462 28.1257L188.699 47.1609H186.371Z" fill="black"/>
<path d="M234.729 47.4659C233.176 47.4659 231.563 47.3236 229.888 47.0389C228.254 46.7542 226.702 46.3678 225.231 45.8797C223.76 45.3509 222.453 44.7205 221.309 43.9884L224.618 36.7281H225.905L230.623 43.1952C231.93 43.7647 233.462 44.0494 235.219 44.0494C237.18 44.0494 238.752 43.663 239.937 42.8902C241.122 42.0767 241.714 40.9989 241.714 39.6566C241.714 38.5178 241.244 37.623 240.305 36.9722C239.406 36.2807 238.242 35.7113 236.812 35.2639C235.382 34.8165 233.871 34.3894 232.278 33.9827C230.685 33.576 229.173 33.0472 227.743 32.3964C226.314 31.705 225.149 30.8102 224.251 29.712C223.352 28.6138 222.903 27.1495 222.903 25.3192C222.903 22.4314 224.067 20.174 226.395 18.5471C228.765 16.9202 232.033 16.1067 236.199 16.1067C237.629 16.1067 239.059 16.2287 240.489 16.4728C241.959 16.7168 243.368 17.0625 244.717 17.5099C246.105 17.9573 247.331 18.5064 248.393 19.1572L245.084 26.3564H243.797L239.018 20.1944C237.915 19.7876 236.751 19.5843 235.525 19.5843C233.769 19.5843 232.38 19.9097 231.359 20.5604C230.337 21.1705 229.827 22.0247 229.827 23.1229C229.827 24.2617 230.276 25.1769 231.175 25.8683C232.073 26.5191 233.238 27.0682 234.667 27.5156C236.097 27.963 237.609 28.4104 239.202 28.8578C240.836 29.2646 242.368 29.8137 243.797 30.5051C245.227 31.1559 246.391 32.0304 247.29 33.1285C248.189 34.2267 248.638 35.6706 248.638 37.4603C248.638 40.6735 247.433 43.1546 245.023 44.9035C242.613 46.6118 239.181 47.4659 234.729 47.4659Z" fill="black"/>
<path d="M254.485 47.4659C252.892 47.4659 251.564 46.9982 250.502 46.0627C249.481 45.0865 248.97 43.8867 248.97 42.4631C248.97 40.9989 249.481 39.799 250.502 38.8635C251.564 37.928 252.892 37.4603 254.485 37.4603C256.078 37.4603 257.386 37.928 258.407 38.8635C259.469 39.799 260 40.9989 260 42.4631C260 43.8867 259.469 45.0865 258.407 46.0627C257.386 46.9982 256.078 47.4659 254.485 47.4659Z" fill="black"/>
</svg>
